REM DIRINDEX 1\2,1\3,1\4,1\5
REM DIRNAME folder01,folder02,folder03,folder04,folder05
TITLE ""
FILE "1Q_t_1931-1940.mp3" MP3
  TRACK 01 AUDIO
    TITLE "3:cjc004_6701"
    INDEX 01 00:00:00
  TRACK 02 AUDIO
    TITLE "0:"
    INDEX 01 00:01:22
  TRACK 03 AUDIO
    TITLE "4:cjc004_6702"
    INDEX 01 00:01:48
  TRACK 04 AUDIO
    TITLE "0:"
    INDEX 01 00:03:27
  TRACK 05 AUDIO
    TITLE "5:cjc004_6703"
    INDEX 01 00:03:55
  TRACK 06 AUDIO
    TITLE "0:"
    INDEX 01 00:08:13
  TRACK 07 AUDIO
    TITLE "3:cjc004_6704"
    INDEX 01 00:08:66
  TRACK 08 AUDIO
    TITLE "0:"
    INDEX 01 00:10:12
  TRACK 09 AUDIO
    TITLE "4:cjc004_6705"
    INDEX 01 00:10:37
  TRACK 10 AUDIO
    TITLE "0:"
    INDEX 01 00:11:58
  TRACK 11 AUDIO
    TITLE "5:cjc004_6706"
    INDEX 01 00:12:07
  TRACK 12 AUDIO
    TITLE "0:"
    INDEX 01 00:17:23
  TRACK 13 AUDIO
    TITLE "3:cjc004_6707"
    INDEX 01 00:17:74
  TRACK 14 AUDIO
    TITLE "0:"
    INDEX 01 00:19:03
  TRACK 15 AUDIO
    TITLE "4:cjc004_6708"
    INDEX 01 00:19:28
  TRACK 16 AUDIO
    TITLE "0:"
    INDEX 01 00:21:04
  TRACK 17 AUDIO
    TITLE "5:cjc004_6709"
    INDEX 01 00:21:29
  TRACK 18 AUDIO
    TITLE "0:"
    INDEX 01 00:26:20
  TRACK 19 AUDIO
    TITLE "3:cjc004_6710"
    INDEX 01 00:26:73
  TRACK 20 AUDIO
    TITLE "0:"
    INDEX 01 00:28:17
  TRACK 21 AUDIO
    TITLE "4:cjc004_6711"
    INDEX 01 00:28:41
  TRACK 22 AUDIO
    TITLE "0:"
    INDEX 01 00:30:24
  TRACK 23 AUDIO
    TITLE "5:cjc004_6712"
    INDEX 01 00:30:50
  TRACK 24 AUDIO
    TITLE "0:"
    INDEX 01 00:35:31
  TRACK 25 AUDIO
    TITLE "3:cjc004_6713"
    INDEX 01 00:36:07
  TRACK 26 AUDIO
    TITLE "0:"
    INDEX 01 00:37:22
  TRACK 27 AUDIO
    TITLE "4:cjc004_6714"
    INDEX 01 00:37:50
  TRACK 28 AUDIO
    TITLE "0:"
    INDEX 01 00:39:09
  TRACK 29 AUDIO
    TITLE "5:cjc004_6715"
    INDEX 01 00:39:31
  TRACK 30 AUDIO
    TITLE "0:"
    INDEX 01 00:43:58
  TRACK 31 AUDIO
    TITLE "3:cjc004_6716"
    INDEX 01 00:44:36
  TRACK 32 AUDIO
    TITLE "0:"
    INDEX 01 00:45:49
  TRACK 33 AUDIO
    TITLE "4:cjc004_6717"
    INDEX 01 00:46:02
  TRACK 34 AUDIO
    TITLE "0:"
    INDEX 01 00:47:21
  TRACK 35 AUDIO
    TITLE "5:cjc004_6718"
    INDEX 01 00:47:46
  TRACK 36 AUDIO
    TITLE "0:"
    INDEX 01 00:51:40
  TRACK 37 AUDIO
    TITLE "3:cjc004_6719"
    INDEX 01 00:52:16
  TRACK 38 AUDIO
    TITLE "0:"
    INDEX 01 00:53:39
  TRACK 39 AUDIO
    TITLE "4:cjc004_6720"
    INDEX 01 00:53:68
  TRACK 40 AUDIO
    TITLE "0:"
    INDEX 01 00:55:01
  TRACK 41 AUDIO
    TITLE "5:cjc004_6721"
    INDEX 01 00:55:22
  TRACK 42 AUDIO
    TITLE "0:"
    INDEX 01 00:59:55
  TRACK 43 AUDIO
    TITLE "3:cjc004_6722"
    INDEX 01 01:00:31
  TRACK 44 AUDIO
    TITLE "0:"
    INDEX 01 01:01:54
  TRACK 45 AUDIO
    TITLE "4:cjc004_6723"
    INDEX 01 01:02:06
  TRACK 46 AUDIO
    TITLE "0:"
    INDEX 01 01:03:45
  TRACK 47 AUDIO
    TITLE "5:cjc004_6724"
    INDEX 01 01:03:69
  TRACK 48 AUDIO
    TITLE "0:"
    INDEX 01 01:08:46
  TRACK 49 AUDIO
    TITLE "3:cjc004_6725"
    INDEX 01 01:09:22
  TRACK 50 AUDIO
    TITLE "0:"
    INDEX 01 01:10:51
  TRACK 51 AUDIO
    TITLE "4:cjc004_6726"
    INDEX 01 01:11:07
  TRACK 52 AUDIO
    TITLE "0:"
    INDEX 01 01:12:19
  TRACK 53 AUDIO
    TITLE "5:cjc004_6727"
    INDEX 01 01:12:44
  TRACK 54 AUDIO
    TITLE "0:"
    INDEX 01 01:16:52
  TRACK 55 AUDIO
    TITLE "3:cjc004_6728"
    INDEX 01 01:17:32
  TRACK 56 AUDIO
    TITLE "0:"
    INDEX 01 01:18:53
  TRACK 57 AUDIO
    TITLE "4:cjc004_6729"
    INDEX 01 01:18:74
  TRACK 58 AUDIO
    TITLE "0:"
    INDEX 01 01:20:10
  TRACK 59 AUDIO
    TITLE "5:cjc004_6730"
    INDEX 01 01:20:34
  TRACK 60 AUDIO
    TITLE "0:"
    INDEX 01 01:24:69
